<?xml version="1.0" encoding="UTF-8"?>
<svg id="Layer_1" data-name="Layer 1" xmlns="http://www.w3.org/2000/svg" viewBox="0 0 2000 2000">
  <defs>
    <style>
      .cls-1 {
        fill: #cfd8e8;
        stroke-width: 0px;
      }
    </style>
  </defs>
  <path class="cls-1" d="M576.16,1874.41s142.23-97.15,427.47-97.15,427.47,97.15,427.47,97.15c0,0-147.54,97.15-427.47,97.15-290.21-9.46-427.47-97.15-427.47-97.15Z"/>
  <g>
    <circle class="cls-1" cx="1003.63" cy="603.28" r="188.09"/>
    <path class="cls-1" d="M1174.62,1932.71c-170.99-662.58-103.81-1329.43-103.81-1329.43h-133.11l-69.15,1329.43"/>
  </g>
  <path class="cls-1" d="M1053.89,688.87c-.19-.05-.28-.08-.28-.08"/>
  <path class="cls-1" d="M1528.25,125.68c-256.48,139.9-445.09,510.51-454.67,503.8-233.17-163.22,11.66-713.65,454.67-503.8Z"/>
  <path class="cls-1" d="M1936.29,816.01c23.32-396.38-536.28-699.5-862.71-279.8,0,0,582.91,0,862.71,279.8"/>
  <path class="cls-1" d="M933.68,536.21c-816.08-23.32-512.96,697-512.96,697,0,0,112.76-516.67,466.33-603.73.23-.06,55.48,69.5,55.48,69.5"/>
  <path class="cls-1" d="M1070.77,534.27c816.08-23.32,512.96,697,512.96,697,0,0-112.76-516.67-466.33-603.73-.23-.06-55.48,69.5-55.48,69.5"/>
  <path class="cls-1" d="M833.58,1932.71c170.99-662.58,103.81-1329.43,103.81-1329.43h133.11s69.15,1329.43,69.15,1329.43"/>
  <path class="cls-1" d="M70.97,816.01C47.65,419.63,607.25,116.52,933.68,536.21c0,0-582.91,0-862.71,279.8"/>
  <path class="cls-1" d="M478.52,133.87c256.48,139.9,445.09,510.51,454.67,503.8,233.17-163.22-11.66-713.65-454.67-503.8Z"/>
</svg>